<svg version="1.1" viewBox="0.0 0.0 960.0 540.0" fill="none" stroke="none" stroke-linecap="square" stroke-miterlimit="10" xmlns:xlink="http://www.w3.org/1999/xlink" xmlns="http://www.w3.org/2000/svg"><clipPath id="ga6af533670_0_11.0"><path d="m0 0l960.0 0l0 540.0l-960.0 0l0 -540.0z" clip-rule="nonzero"/></clipPath><g clip-path="url(#ga6af533670_0_11.0)"><path fill="#ffffff" d="m0 0l960.0 0l0 540.0l-960.0 0z" fill-rule="evenodd"/><path fill="#000000" fill-opacity="0.1076" d="m315.60703 235.60893l0 0c0 -92.70557 73.50992 -167.85828 164.18896 -167.85828l0 0c43.545624 0 85.30777 17.68502 116.09915 49.16455c30.791382 31.47953 48.089844 74.174934 48.089844 118.69372l0 0c0 92.70555 -73.50995 167.85826 -164.189 167.85826l0 0c-90.67905 0 -164.18896 -75.15271 -164.18896 -167.85826zm52.760498 0l0 0c0 63.566757 49.888214 115.09779 111.42847 115.09779c61.540253 0 111.4285 -51.531036 111.4285 -115.09779l0 0c0 -63.566757 -49.888245 -115.097786 -111.4285 -115.097786l0 0c-61.540253 0 -111.42847 51.53103 -111.42847 115.097786z" fill-rule="evenodd"/><path fill="#000000" fill-opacity="0.0" d="m300.28506 130.18861l56.043243 33.340683" fill-rule="evenodd"/><path stroke="#ff9900" stroke-width="2.0" stroke-linejoin="round" stroke-linecap="butt" d="m306.79947 134.06409l49.52887 29.46521" fill-rule="evenodd"/><path fill="#ff9900" stroke="#ff9900" stroke-width="2.0" stroke-linecap="butt" d="m301.1445 130.69989c0.9289856 -1.5615692 2.947998 -2.0743713 4.5095825 -1.1453857c1.5615845 0.92900085 2.0743713 2.9480133 1.1453857 4.5095825c-0.9290161 1.5615692 -2.947998 2.0743866 -4.5095825 1.1453857c-1.5615845 -0.92900085 -2.0743713 -2.947998 -1.1453857 -4.5095825z" fill-rule="nonzero"/><path fill="#000000" fill-opacity="0.0" d="m88.795235 87.48294l211.10269 0l0 88.48561l-211.10269 0z" fill-rule="evenodd"/><path fill="#ff9900" d="m115.925316 112.92419l2.0 0q1.875 -0.03125 2.9375 -0.984375q1.078125 -0.953125 1.078125 -2.59375q0 -3.65625 -3.640625 -3.65625q-1.71875 0 -2.75 0.984375q-1.015625 0.96875 -1.015625 2.59375l-2.65625 0q0 -2.484375 1.8125 -4.125q1.8125 -1.640625 4.609375 -1.640625q2.9375 0 4.609375 1.5625q1.6875 1.5625 1.6875 4.34375q0 1.359375 -0.890625 2.640625q-0.875 1.265625 -2.390625 1.890625q1.71875 0.546875 2.65625 1.8125q0.9375 1.265625 0.9375 3.078125q0 2.8125 -1.84375 4.453125q-1.828125 1.640625 -4.765625 1.640625q-2.921875 0 -4.765625 -1.578125q-1.84375 -1.59375 -1.84375 -4.203125l2.671875 0q0 1.640625 1.0625 2.640625q1.078125 0.984375 2.890625 0.984375q1.90625 0 2.921875 -1.0q1.03125 -1.0 1.03125 -2.875q0 -1.828125 -1.125 -2.796875q-1.109375 -0.96875 -3.21875 -1.0l-2.0 0l0 -2.171875zm25.666374 3.9375l-6.984375 0l0 -2.15625l6.984375 0l0 2.15625zm17.89833 -0.65625l-4.890625 0l0 8.4375l-2.765625 0l0 -20.84375l6.90625 0q3.515625 0 5.40625 1.609375q1.90625 1.59375 1.90625 4.65625q0 1.953125 -1.0625 3.40625q-1.046875 1.4375 -2.921875 2.15625l4.90625 8.84375l0 0.171875l-2.953125 0l-4.53125 -8.4375zm-4.890625 -2.25l4.21875 0q2.046875 0 3.25 -1.046875q1.21875 -1.0625 1.21875 -2.84375q0 -1.9375 -1.15625 -2.96875q-1.140625 -1.03125 -3.328125 -1.046875l-4.203125 0l0 7.90625zm27.089249 1.046875l-9.03125 0l0 7.390625l10.5 0l0 2.25l-13.25 0l0 -20.84375l13.09375 0l0 2.25l-10.34375 0l0 6.703125l9.03125 0l0 2.25zm16.387665 0.4375l-8.75 0l0 9.203125l-2.75 0l0 -20.84375l12.921875 0l0 2.25l-10.171875 0l0 7.140625l8.75 0l0 2.25zm13.791397 3.765625l-8.734375 0l-1.96875 5.4375l-2.828125 0l7.953125 -20.84375l2.40625 0l7.984375 20.84375l-2.828125 0l-1.984375 -5.4375zm-7.90625 -2.265625l7.09375 0l-3.5625 -9.75l-3.53125 9.75zm30.693222 1.09375q-0.375 3.296875 -2.4375 5.09375q-2.046875 1.796875 -5.453125 1.796875q-3.703125 0 -5.9375 -2.640625q-2.21875 -2.65625 -2.21875 -7.09375l0 -2.0q0 -2.90625 1.03125 -5.109375q1.046875 -2.21875 2.953125 -3.390625q1.90625 -1.1875 4.40625 -1.1875q3.328125 0 5.328125 1.859375q2.0 1.859375 2.328125 5.125l-2.75 0q-0.359375 -2.484375 -1.5625 -3.59375q-1.1875 -1.125 -3.34375 -1.125q-2.640625 0 -4.140625 1.953125q-1.484375 1.9375 -1.484375 5.53125l0 2.03125q0 3.390625 1.40625 5.390625q1.421875 2.0 3.984375 2.0q2.28125 0 3.5 -1.03125q1.234375 -1.03125 1.640625 -3.609375l2.75 0zm17.751831 -11.984375l-6.703125 0l0 18.59375l-2.734375 0l0 -18.59375l-6.6875 0l0 -2.25l16.125 0l0 2.25zm18.723434 8.84375q0 3.0625 -1.03125 5.34375q-1.03125 2.28125 -2.921875 3.484375q-1.890625 1.203125 -4.40625 1.203125q-2.46875 0 -4.375 -1.203125q-1.890625 -1.21875 -2.9531097 -3.453125q-1.046875 -2.234375 -1.078125 -5.1875l0 -1.5q0 -3.015625 1.046875 -5.3125q1.0468597 -2.3125 2.9531097 -3.53125q1.921875 -1.234375 4.375 -1.234375q2.515625 0 4.421875 1.21875q1.90625 1.203125 2.9375 3.5q1.03125 2.296875 1.03125 5.359375l0 1.3125zm-2.734375 -1.34375q0 -3.71875 -1.484375 -5.703125q-1.484375 -1.984375 -4.171875 -1.984375q-2.609375 0 -4.109375 1.984375q-1.484375 1.984375 -1.53125 5.515625l0 1.53125q0 3.59375 1.515625 5.65625q1.515625 2.046875 4.15625 2.046875q2.671875 0 4.125 -1.9375q1.46875 -1.9375 1.5 -5.5625l0 -1.546875zm14.506836 2.65625l-4.890625 0l0 8.4375l-2.765625 0l0 -20.84375l6.90625 0q3.515625 0 5.40625 1.609375q1.90625 1.59375 1.90625 4.65625q0 1.953125 -1.0625 3.40625q-1.046875 1.4375 -2.921875 2.15625l4.90625 8.84375l0 0.171875l-2.953125 0l-4.53125 -8.4375zm-4.890625 -2.25l4.21875 0q2.046875 0 3.25 -1.046875q1.21875 -1.0625 1.21875 -2.84375q0 -1.9375 -1.15625 -2.96875q-1.140625 -1.03125 -3.328125 -1.046875l-4.203125 0l0 7.90625z" fill-rule="nonzero"/><path fill="#000000" fill-opacity="0.0" d="m478.341 441.70404l0.03878784 -60.8537" fill-rule="evenodd"/><path stroke="#0e9453" stroke-width="2.0" stroke-linejoin="round" stroke-linecap="butt" d="m478.34586 434.12402l0.033935547 -53.27368" fill-rule="evenodd"/><path fill="#0e9453" stroke="#0e9453" stroke-width="2.0" stroke-linecap="butt" d="m478.34164 440.70404c-1.8170166 -0.001159668 -3.2890625 -1.4750977 -3.2879028 -3.2921143c0.001159668 -1.8170166 1.4750671 -3.2890625 3.2920837 -3.2879028c1.8170166 0.001159668 3.2890625 1.4750977 3.2879028 3.2921143c-0.001159668 1.8170166 -1.4750671 3.2890625 -3.2920837 3.2879028z" fill-rule="nonzero"/><path fill="#000000" fill-opacity="0.0" d="m381.63605 443.5139l193.30072 0l0 88.48563l-193.30072 0z" fill-rule="evenodd"/><path fill="#00ff00" d="m427.9966 480.6739l-13.65625 0l0 -1.90625l7.21875 -8.015625q1.59375 -1.828125 2.203125 -2.953125q0.609375 -1.140625 0.609375 -2.359375q0 -1.640625 -0.984375 -2.671875q-0.984375 -1.046875 -2.640625 -1.046875q-1.96875 0 -3.0625 1.125q-1.09375 1.109375 -1.09375 3.125l-2.65625 0q0 -2.875 1.859375 -4.65625q1.859375 -1.78125 4.953125 -1.78125q2.921875 0 4.609375 1.53125q1.6875 1.515625 1.6875 4.0625q0 3.078125 -3.921875 7.328125l-5.59375 6.0625l10.46875 0l0 2.15625zm15.853851 -7.78125l-6.984375 0l0 -2.15625l6.984375 0l0 2.15625zm25.648346 5.046875q-1.0625 1.515625 -2.96875 2.265625q-1.890625 0.75 -4.40625 0.75q-2.546875 0 -4.53125 -1.1875q-1.96875 -1.203125 -3.046875 -3.40625q-1.078125 -2.203125 -1.109375 -5.109375l0 -1.8125q0 -4.71875 2.1875 -7.3125q2.203125 -2.59375 6.1875 -2.59375q3.265625 0 5.25 1.671875q2.0 1.671875 2.4375 4.734375l-2.75 0q-0.765625 -4.140625 -4.921875 -4.140625q-2.765625 0 -4.1875 1.9375q-1.421875 1.9375 -1.4375 5.625l0 1.703125q0 3.515625 1.59375 5.578125q1.609375 2.0625 4.34375 2.0625q1.546875 0 2.703125 -0.34375q1.171875 -0.34375 1.921875 -1.15625l0 -4.671875l-4.828125 0l0 -2.234375l7.5625 0l0 7.640625zm12.226929 -5.703125l-4.890625 0l0 8.4375l-2.765625 0l0 -20.84375l6.90625 0q3.515625 0 5.40625 1.609375q1.90625 1.59375 1.90625 4.65625q0 1.953125 -1.0625 3.40625q-1.046875 1.4375 -2.921875 2.15625l4.90625 8.84375l0 0.171875l-2.953125 0l-4.53125 -8.4375zm-4.890625 -2.25l4.21875 0q2.046875 0 3.25 -1.046875q1.21875 -1.0625 1.21875 -2.84375q0 -1.9375 -1.15625 -2.96875q-1.140625 -1.03125 -3.328125 -1.046875l-4.203125 0l0 7.90625zm27.089233 1.046875l-9.03125 0l0 7.390625l10.5 0l0 2.25l-13.25 0l0 -20.84375l13.09375 0l0 2.25l-10.34375 0l0 6.703125l9.03125 0l0 2.25zm16.668915 0l-9.03125 0l0 7.390625l10.5 0l0 2.25l-13.25 0l0 -20.84375l13.09375 0l0 2.25l-10.34375 0l0 6.703125l9.03125 0l0 2.25zm20.90332 9.640625l-2.75 0l-10.5 -16.0625l0 16.0625l-2.765625 0l0 -20.84375l2.765625 0l10.515625 16.125l0 -16.125l2.734375 0l0 20.84375z" fill-rule="nonzero"/><path fill="#000000" fill-opacity="0.0" d="m386.48926 185.46344l186.6142 0l0 106.299194l-186.6142 0z" fill-rule="evenodd"/><path fill="#000000" d="m420.1885 238.07367l-7.125 0l0 7.359375l-3.703125 0l0 -18.0l11.71875 0l0 3.0l-8.015625 0l0 4.65625l7.125 0l0 2.984375zm6.5791626 7.359375l-3.578125 0l0 -19.0l3.578125 0l0 19.0zm10.965424 -1.359375q-1.328125 1.609375 -3.671875 1.609375q-2.140625 0 -3.28125 -1.234375q-1.125 -1.234375 -1.15625 -3.625l0 -8.765625l3.578125 0l0 8.640625q0 2.09375 1.90625 2.09375q1.8125 0 2.5 -1.265625l0 -9.46875l3.578125 0l0 13.375l-3.359375 0l-0.09375 -1.359375zm9.938507 -12.015625l0 14.109375q0 2.203125 -1.171875 3.4375q-1.171875 1.234375 -3.390625 1.234375q-0.921875 0 -1.765625 -0.21875l0 -2.828125q0.640625 0.109375 1.125 0.109375q1.625 0 1.625 -1.71875l0 -14.125l3.578125 0zm-3.875 -3.46875q0 -0.796875 0.53125 -1.3125q0.546875 -0.53125 1.46875 -0.53125q0.9375 0 1.46875 0.53125q0.546875 0.515625 0.546875 1.3125q0 0.8125 -0.5625 1.34375q-0.546875 0.515625 -1.453125 0.515625q-0.890625 0 -1.453125 -0.515625q-0.546875 -0.53125 -0.546875 -1.34375zm6.110626 10.03125q0 -2.0 0.765625 -3.546875q0.765625 -1.5625 2.203125 -2.40625q1.453125 -0.859375 3.359375 -0.859375q2.703125 0 4.40625 1.65625q1.71875 1.65625 1.921875 4.5l0.03125 0.921875q0 3.078125 -1.734375 4.9375q-1.71875 1.859375 -4.609375 1.859375q-2.890625 0 -4.625 -1.859375q-1.71875 -1.859375 -1.71875 -5.046875l0 -0.15625zm3.578125 0.265625q0 1.890625 0.71875 2.90625q0.71875 1.0 2.046875 1.0q1.296875 0 2.03125 -0.984375q0.734375 -1.0 0.734375 -3.1875q0 -1.875 -0.734375 -2.890625q-0.734375 -1.03125 -2.046875 -1.03125q-1.3125 0 -2.03125 1.03125q-0.71875 1.015625 -0.71875 3.15625zm17.050446 -0.25q0 -3.125 1.40625 -4.96875q1.40625 -1.859375 3.84375 -1.859375q1.953125 0 3.21875 1.453125l0 -6.828125l3.59375 0l0 19.0l-3.234375 0l-0.171875 -1.421875q-1.328125 1.671875 -3.4375 1.671875q-2.359375 0 -3.796875 -1.859375q-1.421875 -1.859375 -1.421875 -5.1875zm3.578125 0.265625q0 1.875 0.65625 2.890625q0.65625 1.0 1.90625 1.0q1.65625 0 2.328125 -1.40625l0 -5.28125q-0.65625 -1.390625 -2.3125 -1.390625q-2.578125 0 -2.578125 4.1875zm17.412415 6.78125q-2.9375 0 -4.796875 -1.796875q-1.84375 -1.8125 -1.84375 -4.828125l0 -0.34375q0 -2.015625 0.78125 -3.59375q0.78125 -1.59375 2.203125 -2.453125q1.4375 -0.859375 3.265625 -0.859375q2.734375 0 4.3125 1.734375q1.578125 1.71875 1.578125 4.90625l0 1.453125l-8.515625 0q0.171875 1.3125 1.046875 2.109375q0.875 0.78125 2.203125 0.78125q2.0625 0 3.234375 -1.484375l1.75 1.953125q-0.796875 1.140625 -2.171875 1.78125q-1.375 0.640625 -3.046875 0.640625zm-0.40625 -10.984375q-1.0625 0 -1.734375 0.71875q-0.65625 0.71875 -0.84375 2.046875l4.96875 0l0 -0.28125q-0.015625 -1.1875 -0.640625 -1.828125q-0.609375 -0.65625 -1.75 -0.65625zm27.286896 -4.265625l-5.515625 0l0 15.0l-3.7030945 0l0 -15.0l-5.4375 0l0 -3.0l14.6562195 0l0 3.0zm2.1224365 15.0l0 -18.0l5.53125 0q2.375 0 4.25 1.078125q1.875 1.0625 2.921875 3.03125q1.0625 1.96875 1.0625 4.484375l0 0.828125q0 2.5 -1.03125 4.453125q-1.03125 1.953125 -2.921875 3.03125q-1.875 1.078125 -4.234375 1.09375l-5.578125 0zm3.703125 -15.0l0 12.015625l1.796875 0q2.171875 0 3.328125 -1.421875q1.15625 -1.421875 1.171875 -4.0625l0 -0.953125q0 -2.75 -1.140625 -4.15625q-1.125 -1.421875 -3.328125 -1.421875l-1.828125 0zm12.75769 15.0l0 -18.0l5.53125 0q2.375 0 4.25 1.078125q1.875 1.0625 2.921875 3.03125q1.0625 1.96875 1.0625 4.484375l0 0.828125q0 2.5 -1.03125 4.453125q-1.03125 1.953125 -2.921875 3.03125q-1.875 1.078125 -4.234375 1.09375l-5.578125 0zm3.703125 -15.0l0 12.015625l1.796875 0q2.171875 0 3.328125 -1.421875q1.15625 -1.421875 1.171875 -4.0625l0 -0.953125q0 -2.75 -1.140625 -4.15625q-1.125 -1.421875 -3.328125 -1.421875l-1.828125 0z" fill-rule="nonzero"/><path fill="#000000" fill-opacity="0.0" d="m658.6322 130.18861l-56.043274 33.340683" fill-rule="evenodd"/><path stroke="#ff0000" stroke-width="2.0" stroke-linejoin="round" stroke-linecap="butt" d="m652.1178 134.06409l-49.52887 29.46521" fill-rule="evenodd"/><path fill="#ff0000" stroke="#ff0000" stroke-width="2.0" stroke-linecap="butt" d="m657.77277 130.69989c0.9290161 1.5615845 0.41619873 3.5805817 -1.1453857 4.5095825c-1.5615845 0.92900085 -3.5805664 0.41618347 -4.5095825 -1.1453857c-0.9290161 -1.5615692 -0.41619873 -3.5805817 1.1453857 -4.5095825c1.5615845 -0.9289856 3.5805664 -0.41618347 4.5095825 1.1453857z" fill-rule="nonzero"/><path fill="#000000" fill-opacity="0.0" d="m660.0939 87.48183l193.30072 0l0 88.48563l-193.30072 0z" fill-rule="evenodd"/><path fill="#ff0000" d="m679.5314 124.64183l-2.65625 0l0 -17.65625l-5.34375 1.96875l0 -2.40625l7.59375 -2.859375l0.40625 0l0 20.953125zm20.806946 -7.78125l-6.984375 0l0 -2.15625l6.984375 0l0 2.15625zm17.898376 -0.65625l-4.890625 0l0 8.4375l-2.765625 0l0 -20.84375l6.90625 0q3.515625 0 5.40625 1.609375q1.90625 1.59375 1.90625 4.65625q0 1.953125 -1.0625 3.40625q-1.046875 1.4375 -2.921875 2.15625l4.90625 8.84375l0 0.171875l-2.953125 0l-4.53125 -8.4375zm-4.890625 -2.25l4.21875 0q2.046875 0 3.25 -1.046875q1.21875 -1.0625 1.21875 -2.84375q0 -1.9375 -1.15625 -2.96875q-1.140625 -1.03125 -3.328125 -1.046875l-4.203125 0l0 7.90625zm27.089233 1.046875l-9.03125 0l0 7.390625l10.5 0l0 2.25l-13.25 0l0 -20.84375l13.09375 0l0 2.25l-10.34375 0l0 6.703125l9.03125 0l0 2.25zm4.8876343 9.640625l0 -20.84375l5.890625 0q2.71875 0 4.796875 1.203125q2.09375 1.203125 3.234375 3.421875q1.140625 2.21875 1.15625 5.09375l0 1.328125q0 2.953125 -1.140625 5.171875q-1.140625 2.21875 -3.25 3.40625q-2.109375 1.1875 -4.921875 1.21875l-5.765625 0zm2.75 -18.59375l0 16.34375l2.890625 0q3.171875 0 4.9375 -1.96875q1.78125 -1.984375 1.78125 -5.640625l0 -1.203125q0 -3.5625 -1.671875 -5.53125q-1.671875 -1.96875 -4.734375 -2.0l-3.203125 0z" fill-rule="nonzero"/><g filter="url(#shadowFilter-ga6af533670_0_11.1)"><use xlink:href="#ga6af533670_0_11.1" transform="matrix(1.0 0.0 0.0 1.0 0.0 1.0)"/></g><defs><filter id="shadowFilter-ga6af533670_0_11.1" filterUnits="userSpaceOnUse"><feGaussianBlur in="SourceAlpha" stdDeviation="2.5" result="blur"/><feComponentTransfer in="blur" color-interpolation-filters="sRGB"><feFuncR type="linear" slope="0" intercept="0.0"/><feFuncG type="linear" slope="0" intercept="0.0"/><feFuncB type="linear" slope="0" intercept="0.0"/><feFuncA type="linear" slope="0.4" intercept="0"/></feComponentTransfer></filter></defs><g id="ga6af533670_0_11.1"><path fill="#ff0000" d="m479.4079 57.27258l0 0c62.166016 -0.03339386 119.62341 33.85243 150.71387 88.88432c31.090454 55.031906 31.086731 122.84245 -0.009765625 177.87074l-28.803162 -17.009674c25.22876 -44.644897 25.276917 -99.62822 0.1262207 -144.20389c-25.150696 -44.57567 -71.67163 -71.95818 -122.009796 -71.8157z" fill-rule="evenodd"/></g><g filter="url(#shadowFilter-ga6af533670_0_11.2)"><use xlink:href="#ga6af533670_0_11.2" transform="matrix(1.0 0.0 0.0 1.0 0.0 1.0)"/></g><defs><filter id="shadowFilter-ga6af533670_0_11.2" filterUnits="userSpaceOnUse"><feGaussianBlur in="SourceAlpha" stdDeviation="2.5" result="blur"/><feComponentTransfer in="blur" color-interpolation-filters="sRGB"><feFuncR type="linear" slope="0" intercept="0.0"/><feFuncG type="linear" slope="0" intercept="0.0"/><feFuncB type="linear" slope="0" intercept="0.0"/><feFuncA type="linear" slope="0.4" intercept="0"/></feComponentTransfer></filter></defs><g id="ga6af533670_0_11.2"><path fill="#ff9900" d="m483.23236 57.307304l0 0c-61.60959 -1.2453537 -119.26517 30.925873 -151.56573 84.57215c-32.300568 53.64627 -34.424225 120.759155 -5.582672 176.42722l28.838562 -15.614075l0 0c-23.511932 -45.361053 -21.831635 -100.02045 4.416504 -143.66765c26.248138 -43.64721 73.14075 -69.75819 123.25333 -68.63053z" fill-rule="evenodd"/></g><path fill="#ff9900" d="m512.5762 73.48069l-33.19687 33.921265l0 -67.84252z" fill-rule="evenodd"/><g filter="url(#shadowFilter-ga6af533670_0_11.3)"><use xlink:href="#ga6af533670_0_11.3" transform="matrix(1.0 0.0 0.0 1.0 0.0 1.0)"/></g><defs><filter id="shadowFilter-ga6af533670_0_11.3" filterUnits="userSpaceOnUse"><feGaussianBlur in="SourceAlpha" stdDeviation="2.5" result="blur"/><feComponentTransfer in="blur" color-interpolation-filters="sRGB"><feFuncR type="linear" slope="0" intercept="0.0"/><feFuncG type="linear" slope="0" intercept="0.0"/><feFuncB type="linear" slope="0" intercept="0.0"/><feFuncA type="linear" slope="0.4" intercept="0"/></feComponentTransfer></filter></defs><g id="ga6af533670_0_11.3"><path fill="#0e9453" d="m326.54248 319.1874l0 0c29.504456 55.937347 85.97513 91.51877 148.11594 93.3259c62.14084 1.8071289 120.49844 -30.434937 153.06516 -84.5672l-27.891052 -17.535614l0 0c-26.511414 44.081116 -73.97632 70.361694 -124.476105 68.92044c-50.499786 -1.4412537 -96.342255 -30.384827 -120.22125 -75.90411z" fill-rule="evenodd"/></g><path fill="#ff0000" d="m605.36945 336.77838l-11.905518 -39.46457l50.55121 27.275574z" fill-rule="evenodd"/><path fill="#0e9453" d="m325.3466 284.32925l45.19684 13.259857l-58.141724 32.91339z" fill-rule="evenodd"/></g></svg>